MutatorSansInstance_800-0.ufo
<glyph name="comma" format="2">
  <advance width="234"/>
  <unicode hex="002C"/>
  <outline>
    <contour>
      <point x="198" y="0" type="line"/>
      <point x="198" y="264" type="line"/>
      <point x="36" y="264" type="line"/>
      <point x="36" y="0" type="line"/>
      <point x="106" y="-14" type="line"/>
      <point x="97" y="12" type="line"/>
      <point x="75" y="-133" type="line"/>
      <point x="135" y="-135" type="line"/>
    </contour>
  </outline>
</glyph>
<glyph name="period" format="2">
  <advance width="234"/>
  <unicode hex="002E"/>
  <outline>
    <contour>
      <point x="36" y="0" type="line"/>
      <point x="198" y="0" type="line"/>
      <point x="198" y="264" type="line"/>
      <point x="36" y="264" type="line"/>
    </contour>
  </outline>
</glyph>
<glyph name="A" format="2">
  <advance width="672"/>
  <unicode hex="0041"/>
  <outline>
    <contour>
      <point x="12" y="0" type="line"/>
      <point x="212" y="0" type="line"/>
      <point x="305" y="780" type="line"/>
      <point x="130" y="780" type="line"/>
    </contour>
    <contour>
      <point x="103" y="129" type="line"/>
      <point x="529" y="129" type="line"/>
      <point x="529" y="304" type="line"/>
      <point x="103" y="304" type="line"/>
    </contour>
    <contour>
      <point x="378" y="0" type="line"/>
      <point x="659" y="0" type="line"/>
      <point x="539" y="780" type="line"/>
      <point x="276" y="780" type="line"/>
    </contour>
    <contour>
      <point x="196" y="564" type="line"/>
      <point x="426" y="564" type="line"/>
      <point x="426" y="780" type="line"/>
      <point x="196" y="780" type="line"/>
    </contour>
  </outline>
</glyph>
<glyph name="B" format="2">
  <advance width="657"/>
  <unicode hex="0042"/>
  <outline>
    <contour>
      <point x="36" y="0" type="line"/>
      <point x="292" y="0" type="line"/>
      <point x="292" y="780" type="line"/>
      <point x="36" y="780" type="line"/>
    </contour>
    <contour>
      <point x="240" y="344" type="line"/>
      <point x="318" y="344" type="line" smooth="yes"/>
      <point x="362" y="344"/>
      <point x="390" y="326"/>
      <point x="390" y="270" type="curve" smooth="yes"/>
      <point x="390" y="218"/>
      <point x="362" y="198"/>
      <point x="316" y="198" type="curve" smooth="yes"/>
      <point x="240" y="198" type="line"/>
      <point x="240" y="0" type="line"/>
      <point x="355" y="0" type="line" smooth="yes"/>
      <point x="589" y="0"/>
      <point x="641" y="91"/>
      <point x="641" y="221" type="curve" smooth="yes"/>
      <point x="641" y="339"/>
      <point x="587" y="404"/>
      <point x="487" y="419" type="curve"/>
      <point x="483" y="372" type="line"/>
      <point x="563" y="387"/>
      <point x="629" y="443"/>
      <point x="629" y="554" type="curve" smooth="yes"/>
      <point x="629" y="692"/>
      <point x="565" y="780"/>
      <point x="344" y="780" type="curve" smooth="yes"/>
      <point x="240" y="780" type="line"/>
      <point x="240" y="592" type="line"/>
      <point x="314" y="592" type="line" smooth="yes"/>
      <point x="361" y="592"/>
      <point x="386" y="572"/>
      <point x="386" y="522" type="curve" smooth="yes"/>
      <point x="386" y="466"/>
      <point x="358" y="450"/>
      <point x="314" y="450" type="curve" smooth="yes"/>
      <point x="240" y="450" type="line"/>
    </contour>
  </outline>
</glyph>
<glyph name="C" format="2">
  <advance width="757"/>
  <unicode hex="0043"/>
  <outline>
    <contour>
      <point x="492" y="355" type="line"/>
      <point x="487" y="244"/>
      <point x="457" y="208"/>
      <point x="392" y="208" type="curve" smooth="yes"/>
      <point x="384" y="208" type="line" smooth="yes"/>
      <point x="320" y="208"/>
      <point x="292" y="259"/>
      <point x="292" y="393" type="curve" smooth="yes"/>
      <point x="292" y="523"/>
      <point x="320" y="572"/>
      <point x="384" y="572" type="curve" smooth="yes"/>
      <point x="392" y="572" type="line" smooth="yes"/>
      <point x="457" y="572"/>
      <point x="487" y="538"/>
      <point x="492" y="431" type="curve"/>
      <point x="731" y="455" type="line"/>
      <point x="713" y="684"/>
      <point x="588" y="790"/>
      <point x="399" y="790" type="curve" smooth="yes"/>
      <point x="376" y="790" type="line" smooth="yes"/>
      <point x="161" y="790"/>
      <point x="26" y="666"/>
      <point x="26" y="393" type="curve" smooth="yes"/>
      <point x="26" y="117"/>
      <point x="161" y="-10"/>
      <point x="376" y="-10" type="curve" smooth="yes"/>
      <point x="399" y="-10" type="line" smooth="yes"/>
      <point x="588" y="-10"/>
      <point x="714" y="98"/>
      <point x="731" y="332" type="curve"/>
    </contour>
  </outline>
</glyph>
<glyph name="D" format="2">
  <advance width="701"/>
  <unicode hex="0044"/>
  <outline>
    <contour>
      <point x="36" y="0" type="line"/>
      <point x="275" y="0" type="line"/>
      <point x="275" y="780" type="line"/>
      <point x="36" y="780" type="line"/>
    </contour>
    <contour>
      <point x="228" y="570" type="line"/>
      <point x="309" y="570" type="line" smooth="yes"/>
      <point x="377" y="570"/>
      <point x="409" y="523"/>
      <point x="409" y="393" type="curve" smooth="yes"/>
      <point x="409" y="259"/>
      <point x="377" y="210"/>
      <point x="309" y="210" type="curve" smooth="yes"/>
      <point x="221" y="210" type="line"/>
      <point x="221" y="0" type="line"/>
      <point x="316" y="0" type="line" smooth="yes"/>
      <point x="535" y="0"/>
      <point x="675" y="122"/>
      <point x="675" y="393" type="curve" smooth="yes"/>
      <point x="675" y="661"/>
      <point x="535" y="780"/>
      <point x="316" y="780" type="curve" smooth="yes"/>
      <point x="228" y="780" type="line"/>
    </contour>
  </outline>
</glyph>
<glyph name="E" format="2">
  <advance width="556"/>
  <unicode hex="0045"/>
  <anchor x="291" y="822" name="top"/>
  <outline>
    <contour>
      <point x="44" y="0" type="line"/>
      <point x="284" y="0" type="line"/>
      <point x="284" y="780" type="line"/>
      <point x="44" y="780" type="line"/>
    </contour>
    <contour>
      <point x="120" y="557" type="line"/>
      <point x="524" y="557" type="line"/>
      <point x="524" y="780" type="line"/>
      <point x="120" y="780" type="line"/>
    </contour>
    <contour>
      <point x="120" y="0" type="line"/>
      <point x="524" y="0" type="line"/>
      <point x="524" y="223" type="line"/>
      <point x="120" y="223" type="line"/>
    </contour>
    <contour>
      <point x="120" y="319" type="line"/>
      <point x="493" y="319" type="line"/>
      <point x="493" y="462" type="line"/>
      <point x="120" y="462" type="line"/>
    </contour>
  </outline>
</glyph>
<glyph name="F" format="2">
  <advance width="528"/>
  <unicode hex="0046"/>
  <outline>
    <contour>
      <point x="36" y="0" type="line"/>
      <point x="300" y="0" type="line"/>
      <point x="300" y="780" type="line"/>
      <point x="36" y="780" type="line"/>
    </contour>
    <contour>
      <point x="120" y="573" type="line"/>
      <point x="492" y="573" type="line"/>
      <point x="492" y="780" type="line"/>
      <point x="120" y="780" type="line"/>
    </contour>
    <contour>
      <point x="120" y="283" type="line"/>
      <point x="477" y="283" type="line"/>
      <point x="477" y="458" type="line"/>
      <point x="120" y="458" type="line"/>
    </contour>
  </outline>
</glyph>
<glyph name="G" format="2">
  <advance width="766"/>
  <unicode hex="0047"/>
  <outline>
    <contour>
      <point x="386" y="304" type="line"/>
      <point x="551" y="304" type="line"/>
      <point x="551" y="216" type="line"/>
      <point x="633" y="0" type="line"/>
      <point x="729" y="0" type="line"/>
      <point x="729" y="395" type="line"/>
      <point x="386" y="395" type="line"/>
    </contour>
    <contour>
      <point x="508" y="359" type="line"/>
      <point x="503" y="244"/>
      <point x="468" y="208"/>
      <point x="392" y="208" type="curve" smooth="yes"/>
      <point x="384" y="208" type="line" smooth="yes"/>
      <point x="320" y="208"/>
      <point x="292" y="259"/>
      <point x="292" y="393" type="curve" smooth="yes"/>
      <point x="292" y="523"/>
      <point x="325" y="572"/>
      <point x="397" y="572" type="curve" smooth="yes"/>
      <point x="406" y="572" type="line" smooth="yes"/>
      <point x="474" y="572"/>
      <point x="503" y="538"/>
      <point x="508" y="431" type="curve"/>
      <point x="723" y="455" type="line"/>
      <point x="705" y="684"/>
      <point x="586" y="790"/>
      <point x="400" y="790" type="curve" smooth="yes"/>
      <point x="378" y="790" type="line" smooth="yes"/>
      <point x="163" y="790"/>
      <point x="26" y="666"/>
      <point x="26" y="393" type="curve" smooth="yes"/>
      <point x="26" y="117"/>
      <point x="161" y="-10"/>
      <point x="376" y="-10" type="curve" smooth="yes"/>
      <point x="399" y="-10" type="line" smooth="yes"/>
      <point x="584" y="-10"/>
      <point x="703" y="98"/>
      <point x="719" y="336" type="curve"/>
    </contour>
  </outline>
</glyph>
<glyph name="H" format="2">
  <advance width="692"/>
  <unicode hex="0048"/>
  <outline>
    <contour>
      <point x="36" y="0" type="line"/>
      <point x="300" y="0" type="line"/>
      <point x="300" y="780" type="line"/>
      <point x="36" y="780" type="line"/>
    </contour>
    <contour>
      <point x="128" y="275" type="line"/>
      <point x="564" y="275" type="line"/>
      <point x="564" y="490" type="line"/>
      <point x="128" y="490" type="line"/>
    </contour>
    <contour>
      <point x="392" y="0" type="line"/>
      <point x="656" y="0" type="line"/>
      <point x="656" y="780" type="line"/>
      <point x="392" y="780" type="line"/>
    </contour>
  </outline>
</glyph>
<glyph name="I" format="2">
  <advance width="512"/>
  <unicode hex="0049"/>
  <outline>
    <contour>
      <point x="124" y="0" type="line"/>
      <point x="388" y="0" type="line"/>
      <point x="388" y="780" type="line"/>
      <point x="124" y="780" type="line"/>
    </contour>
    <contour>
      <point x="36" y="549" type="line"/>
      <point x="476" y="549" type="line"/>
      <point x="476" y="780" type="line"/>
      <point x="36" y="780" type="line"/>
    </contour>
    <contour>
      <point x="36" y="0" type="line"/>
      <point x="476" y="0" type="line"/>
      <point x="476" y="231" type="line"/>
      <point x="36" y="231" type="line"/>
    </contour>
  </outline>
</glyph>
<glyph name="J" format="2">
  <advance width="603"/>
  <unicode hex="004A"/>
  <outline>
    <contour>
      <point x="205" y="-10" type="curve" smooth="yes"/>
      <point x="431" y="-10"/>
      <point x="567" y="94"/>
      <point x="567" y="319" type="curve" smooth="yes"/>
      <point x="567" y="780" type="line"/>
      <point x="301" y="780" type="line"/>
      <point x="301" y="372" type="line" smooth="yes"/>
      <point x="301" y="265"/>
      <point x="259" y="224"/>
      <point x="176" y="224" type="curve" smooth="yes"/>
      <point x="142" y="224"/>
      <point x="112" y="227"/>
      <point x="78" y="236" type="curve"/>
      <point x="36" y="15" type="line"/>
      <point x="85" y="-2"/>
      <point x="142" y="-10"/>
    </contour>
  </outline>
</glyph>
<glyph name="K" format="2">
  <advance width="742"/>
  <unicode hex="004B"/>
  <outline>
    <contour>
      <point x="36" y="0" type="line"/>
      <point x="300" y="0" type="line"/>
      <point x="300" y="780" type="line"/>
      <point x="36" y="780" type="line"/>
    </contour>
    <contour>
      <point x="274" y="316" type="line"/>
      <point x="319" y="316" type="line"/>
      <point x="440" y="0" type="line"/>
      <point x="730" y="0" type="line"/>
      <point x="551" y="500" type="line"/>
      <point x="332" y="436" type="line"/>
      <point x="274" y="436" type="line"/>
    </contour>
    <contour>
      <point x="318" y="411" type="line"/>
      <point x="521" y="322" type="line"/>
      <point x="725" y="780" type="line"/>
      <point x="450" y="780" type="line"/>
    </contour>
  </outline>
</glyph>
<glyph name="L" format="2">
  <advance width="514"/>
  <unicode hex="004C"/>
  <outline>
    <contour>
      <point x="36" y="0" type="line"/>
      <point x="300" y="0" type="line"/>
      <point x="300" y="780" type="line"/>
      <point x="36" y="780" type="line"/>
    </contour>
    <contour>
      <point x="120" y="0" type="line"/>
      <point x="492" y="0" type="line"/>
      <point x="492" y="207" type="line"/>
      <point x="120" y="207" type="line"/>
    </contour>
  </outline>
</glyph>
<glyph name="M" format="2">
  <advance width="764"/>
  <unicode hex="004D"/>
  <outline>
    <contour>
      <point x="36" y="0" type="line"/>
      <point x="244" y="0" type="line"/>
      <point x="244" y="780" type="line"/>
      <point x="36" y="780" type="line"/>
    </contour>
    <contour>
      <point x="728" y="0" type="line"/>
      <point x="728" y="780" type="line"/>
      <point x="520" y="780" type="line"/>
      <point x="520" y="0" type="line"/>
    </contour>
    <contour>
      <point x="633" y="473" type="line"/>
      <point x="520" y="780" type="line"/>
      <point x="369" y="509" type="line"/>
      <point x="395" y="509" type="line"/>
      <point x="244" y="780" type="line"/>
      <point x="131" y="473" type="line"/>
      <point x="346" y="154" type="line"/>
      <point x="418" y="154" type="line"/>
    </contour>
  </outline>
</glyph>
<glyph name="N" format="2">
  <advance width="692"/>
  <unicode hex="004E"/>
  <outline>
    <contour>
      <point x="36" y="0" type="line"/>
      <point x="243" y="0" type="line"/>
      <point x="243" y="780" type="line"/>
      <point x="36" y="780" type="line"/>
    </contour>
    <contour>
      <point x="95" y="545" type="line"/>
      <point x="449" y="0" type="line"/>
      <point x="597" y="235" type="line"/>
      <point x="243" y="780" type="line"/>
    </contour>
    <contour>
      <point x="449" y="0" type="line"/>
      <point x="656" y="0" type="line"/>
      <point x="656" y="780" type="line"/>
      <point x="449" y="780" type="line"/>
    </contour>
  </outline>
</glyph>
<glyph name="O" format="2">
  <advance width="776"/>
  <unicode hex="004F"/>
  <outline>
    <contour>
      <point x="376" y="-10" type="curve" smooth="yes"/>
      <point x="399" y="-10" type="line" smooth="yes"/>
      <point x="614" y="-10"/>
      <point x="750" y="117"/>
      <point x="750" y="393" type="curve" smooth="yes"/>
      <point x="750" y="666"/>
      <point x="614" y="790"/>
      <point x="399" y="790" type="curve" smooth="yes"/>
      <point x="376" y="790" type="line" smooth="yes"/>
      <point x="161" y="790"/>
      <point x="26" y="666"/>
      <point x="26" y="393" type="curve" smooth="yes"/>
      <point x="26" y="117"/>
      <point x="161" y="-10"/>
    </contour>
    <contour>
      <point x="384" y="208" type="line" smooth="yes"/>
      <point x="320" y="208"/>
      <point x="292" y="259"/>
      <point x="292" y="393" type="curve" smooth="yes"/>
      <point x="292" y="523"/>
      <point x="320" y="572"/>
      <point x="384" y="572" type="curve" smooth="yes"/>
      <point x="392" y="572" type="line" smooth="yes"/>
      <point x="456" y="572"/>
      <point x="484" y="523"/>
      <point x="484" y="393" type="curve" smooth="yes"/>
      <point x="484" y="259"/>
      <point x="456" y="208"/>
      <point x="392" y="208" type="curve" smooth="yes"/>
    </contour>
  </outline>
</glyph>
<glyph name="P" format="2">
  <advance width="647"/>
  <unicode hex="0050"/>
  <outline>
    <contour>
      <point x="36" y="0" type="line"/>
      <point x="300" y="0" type="line"/>
      <point x="300" y="780" type="line"/>
      <point x="36" y="780" type="line"/>
    </contour>
    <contour>
      <point x="240" y="570" type="line"/>
      <point x="314" y="570" type="line" smooth="yes"/>
      <point x="361" y="570"/>
      <point x="382" y="542"/>
      <point x="382" y="476" type="curve" smooth="yes"/>
      <point x="382" y="406"/>
      <point x="361" y="380"/>
      <point x="314" y="380" type="curve" smooth="yes"/>
      <point x="240" y="380" type="line"/>
      <point x="240" y="170" type="line"/>
      <point x="330" y="170" type="line" smooth="yes"/>
      <point x="549" y="170"/>
      <point x="625" y="277"/>
      <point x="625" y="476" type="curve" smooth="yes"/>
      <point x="625" y="674"/>
      <point x="549" y="780"/>
      <point x="331" y="780" type="curve" smooth="yes"/>
      <point x="240" y="780" type="line"/>
    </contour>
  </outline>
</glyph>
<glyph name="Q" format="2">
  <advance width="776"/>
  <unicode hex="0051"/>
  <outline>
    <contour>
      <point x="394" y="-130" type="line"/>
      <point x="651" y="-130" type="line"/>
      <point x="543" y="139" type="line"/>
      <point x="310" y="135" type="line"/>
    </contour>
    <component base="O"/>
  </outline>
</glyph>
<glyph name="R" format="2">
  <advance width="657"/>
  <unicode hex="0052"/>
  <outline>
    <contour>
      <point x="374" y="0" type="line"/>
      <point x="639" y="0" type="line"/>
      <point x="594" y="195" type="line" smooth="yes"/>
      <point x="580" y="249"/>
      <point x="546" y="282"/>
      <point x="487" y="282" type="curve"/>
      <point x="331" y="282" type="line"/>
    </contour>
    <contour>
      <point x="36" y="0" type="line"/>
      <point x="300" y="0" type="line"/>
      <point x="300" y="780" type="line"/>
      <point x="36" y="780" type="line"/>
    </contour>
    <contour>
      <point x="240" y="570" type="line"/>
      <point x="322" y="570" type="line" smooth="yes"/>
      <point x="369" y="570"/>
      <point x="390" y="542"/>
      <point x="390" y="476" type="curve" smooth="yes"/>
      <point x="390" y="405"/>
      <point x="369" y="380"/>
      <point x="322" y="380" type="curve" smooth="yes"/>
      <point x="240" y="380" type="line"/>
      <point x="240" y="219" type="line"/>
      <point x="346" y="219" type="line" smooth="yes"/>
      <point x="549" y="219"/>
      <point x="633" y="317"/>
      <point x="633" y="500" type="curve" smooth="yes"/>
      <point x="633" y="682"/>
      <point x="541" y="780"/>
      <point x="338" y="780" type="curve" smooth="yes"/>
      <point x="240" y="780" type="line"/>
    </contour>
  </outline>
</glyph>
<glyph name="S" format="2">
  <advance width="637"/>
  <unicode hex="0053"/>
  <outline>
    <contour>
      <point x="612" y="234" type="curve" smooth="yes"/>
      <point x="612" y="417"/>
      <point x="514" y="475"/>
      <point x="380" y="496" type="curve" smooth="yes"/>
      <point x="329" y="508" type="line" smooth="yes"/>
      <point x="256" y="522"/>
      <point x="247" y="532"/>
      <point x="247" y="553" type="curve" smooth="yes"/>
      <point x="247" y="574"/>
      <point x="266" y="588"/>
      <point x="322" y="588" type="curve" smooth="yes"/>
      <point x="365" y="588" type="line" smooth="yes"/>
      <point x="441" y="588"/>
      <point x="514" y="579"/>
      <point x="570" y="566" type="curve"/>
      <point x="602" y="759" type="line"/>
      <point x="544" y="774"/>
      <point x="450" y="790"/>
      <point x="391" y="790" type="curve" smooth="yes"/>
      <point x="355" y="790" type="line" smooth="yes"/>
      <point x="141" y="790"/>
      <point x="35" y="692"/>
      <point x="36" y="532" type="curve" smooth="yes"/>
      <point x="36" y="367"/>
      <point x="144" y="307"/>
      <point x="267" y="283" type="curve" smooth="yes"/>
      <point x="318" y="271" type="line" smooth="yes"/>
      <point x="386" y="254"/>
      <point x="400" y="249"/>
      <point x="400" y="226" type="curve" smooth="yes"/>
      <point x="400" y="207"/>
      <point x="380" y="193"/>
      <point x="324" y="193" type="curve" smooth="yes"/>
      <point x="282" y="193" type="line" smooth="yes"/>
      <point x="195" y="193"/>
      <point x="115" y="201"/>
      <point x="52" y="217" type="curve"/>
      <point x="20" y="21" type="line"/>
      <point x="85" y="5"/>
      <point x="190" y="-10"/>
      <point x="256" y="-10" type="curve" smooth="yes"/>
      <point x="293" y="-10" type="line" smooth="yes"/>
      <point x="542" y="-10"/>
      <point x="612" y="100"/>
    </contour>
  </outline>
</glyph>
<glyph name="T" format="2">
  <advance width="584"/>
  <unicode hex="0054"/>
  <outline>
    <contour>
      <point x="160" y="0" type="line"/>
      <point x="424" y="0" type="line"/>
      <point x="424" y="780" type="line"/>
      <point x="160" y="780" type="line"/>
    </contour>
    <contour>
      <point x="22" y="573" type="line"/>
      <point x="562" y="573" type="line"/>
      <point x="562" y="780" type="line"/>
      <point x="22" y="780" type="line"/>
    </contour>
  </outline>
</glyph>
<glyph name="U" format="2">
  <advance width="697"/>
  <unicode hex="0055"/>
  <outline>
    <contour>
      <point x="348" y="-10" type="curve" smooth="yes"/>
      <point x="570" y="-10"/>
      <point x="661" y="92"/>
      <point x="661" y="311" type="curve" smooth="yes"/>
      <point x="661" y="780" type="line"/>
      <point x="397" y="780" type="line"/>
      <point x="397" y="271" type="line" smooth="yes"/>
      <point x="397" y="224"/>
      <point x="382" y="208"/>
      <point x="348" y="208" type="curve" smooth="yes"/>
      <point x="316" y="208"/>
      <point x="300" y="224"/>
      <point x="300" y="271" type="curve" smooth="yes"/>
      <point x="300" y="780" type="line"/>
      <point x="36" y="780" type="line"/>
      <point x="36" y="311" type="line" smooth="yes"/>
      <point x="36" y="92"/>
      <point x="125" y="-10"/>
    </contour>
  </outline>
</glyph>
<glyph name="V" format="2">
  <advance width="672"/>
  <unicode hex="0056"/>
  <outline>
    <contour>
      <point x="660" y="780" type="line"/>
      <point x="451" y="780" type="line"/>
      <point x="358" y="0" type="line"/>
      <point x="541" y="0" type="line"/>
    </contour>
    <contour>
      <point x="293" y="780" type="line"/>
      <point x="12" y="780" type="line"/>
      <point x="132" y="0" type="line"/>
      <point x="396" y="0" type="line"/>
    </contour>
    <contour>
      <point x="476" y="216" type="line"/>
      <point x="246" y="216" type="line"/>
      <point x="246" y="0" type="line"/>
      <point x="476" y="0" type="line"/>
    </contour>
  </outline>
</glyph>
<glyph name="W" format="2">
  <advance width="814"/>
  <unicode hex="0057"/>
  <outline>
    <contour>
      <point x="802" y="780" type="line"/>
      <point x="585" y="780" type="line"/>
      <point x="529" y="228" type="line"/>
      <point x="564" y="228" type="line"/>
      <point x="505" y="780" type="line"/>
      <point x="334" y="780" type="line"/>
      <point x="279" y="228" type="line"/>
      <point x="314" y="228" type="line"/>
      <point x="253" y="780" type="line"/>
      <point x="12" y="780" type="line"/>
      <point x="115" y="0" type="line"/>
      <point x="355" y="0" type="line"/>
      <point x="409" y="455" type="line"/>
      <point x="374" y="455" type="line"/>
      <point x="438" y="0" type="line"/>
      <point x="701" y="0" type="line"/>
    </contour>
  </outline>
</glyph>
<glyph name="X" format="2">
  <advance width="680"/>
  <unicode hex="0058"/>
  <outline>
    <contour>
      <point x="355" y="0" type="line"/>
      <point x="668" y="0" type="line"/>
      <point x="443" y="452" type="line"/>
      <point x="326" y="780" type="line"/>
      <point x="13" y="780" type="line"/>
      <point x="236" y="347" type="line"/>
    </contour>
    <contour>
      <point x="12" y="0" type="line"/>
      <point x="204" y="0" type="line"/>
      <point x="300" y="316" type="line"/>
      <point x="489" y="344" type="line"/>
      <point x="666" y="780" type="line"/>
      <point x="474" y="780" type="line"/>
      <point x="377" y="505" type="line"/>
      <point x="191" y="464" type="line"/>
    </contour>
  </outline>
</glyph>
<glyph name="Y" format="2">
  <advance width="676"/>
  <unicode hex="0059"/>
  <outline>
    <contour>
      <point x="664" y="780" type="line"/>
      <point x="472" y="780" type="line"/>
      <point x="305" y="202" type="line"/>
      <point x="470" y="202" type="line"/>
    </contour>
    <contour>
      <point x="301" y="780" type="line"/>
      <point x="12" y="780" type="line"/>
      <point x="206" y="202" type="line"/>
      <point x="446" y="202" type="line"/>
    </contour>
    <contour>
      <point x="470" y="267" type="line"/>
      <point x="206" y="267" type="line"/>
      <point x="206" y="0" type="line"/>
      <point x="470" y="0" type="line"/>
    </contour>
  </outline>
</glyph>
<glyph name="Z" format="2">
  <advance width="600"/>
  <unicode hex="005A"/>
  <outline>
    <contour>
      <point x="36" y="207" type="line"/>
      <point x="323" y="189" type="line"/>
      <point x="564" y="573" type="line"/>
      <point x="277" y="591" type="line"/>
    </contour>
    <contour>
      <point x="36" y="573" type="line"/>
      <point x="564" y="573" type="line"/>
      <point x="564" y="780" type="line"/>
      <point x="36" y="780" type="line"/>
    </contour>
    <contour>
      <point x="36" y="0" type="line"/>
      <point x="564" y="0" type="line"/>
      <point x="564" y="207" type="line"/>
      <point x="36" y="207" type="line"/>
    </contour>
  </outline>
</glyph>
